P3
9 9
255
 255   0   0	 255   0   0	 255   0   0	 255   0   0	 255   0   0	 255   0   0	 255   0   0	 255   0   0	 255   0   0	
   0 255   0	   0 255   0	   0 255   0	   0 255   0	   0 255   0	   0 255   0	   0 255   0	   0 255   0	   0 255   0	
   0   0 255	   0   0 255	   0   0 255	   0   0 255	   0   0 255	   0   0 255	   0   0 255	   0   0 255	   0   0 255	
  44  53 237	  45 136 143	 112 154 141	 189  30   4	  59 164   7	 187 150  16	   2 208  73	   7 183  31	   4 180  56	
  18 121  86	 149  95 131	  66 123 160	 223 122 250	  67  68 212	  56  76 228	 107 141 216	 151  35  43	  19 178  32	
 219  72 134	 182  82 212	 183  53 251	 202 245 112	 110  19  94	 152   5  43	 237 137  48	 221  36 191	  42 146  92	
 112  76 150	  69 127 119	 223  36 115	 110  21 178	 159 166  48	 247 192  34	  52  79 142	 206 198 170	 155  82  50	
 234 192 131	  64 235 252	 167 107  79	  93 105 155	 235  26 254	 158 157 217	 225  49 203	  65 211 234	 139  82  14	
  46 171 161	 151  97 171	 254 183  23	 149  59  10	  23 209  78	 156 182 186	 224 251  52	 124 147 128	  52  24 130	
