P2
9 9
255
  85  85  85  85  85  85  85  85  85
  85  85  85  85  85  85  85  85  85
  85  85  85  85  85  85  85  85  85
 111 108 135  74  76 117  94  73  80
  75 125 116 198 115 120 154  76  76
 141 158 162 186  74  66 140 149  93
 112 105 124 103 124 157  91 191  95
 185 183 117 117 171 177 159 170  78
 126 139 153  72 103 174 175 133  68
