P2
4 4
255
63
85
85
85
63
70
103
80
110
58
85
158
91
134
94
100
