P2
4 4
255
85
85
85
85
42
85
85
85
85
42
85
85
85
85
42
109
