P2
4 4
255
  85  85  85  85
  97  94  90  84
 124 165  93 129
 146 115 157 152
